<svg width="500" height="500" viewBox="0 0 500 500" fill="none" xmlns="http://www.w3.org/2000/svg">
<g clip-path="url(#clip0_29_111)">
<rect width="500" height="500" rx="250" fill="#172F4A"/>
<path d="M137 131.928C137 109.407 155.257 91.1499 177.778 91.1499C200.3 91.1499 218.557 109.407 218.557 131.928C218.557 154.45 200.3 172.707 177.778 172.707C155.257 172.707 137 154.45 137 131.928Z" fill="#00C3C6"/>
<path d="M137 227.078C137 204.556 155.257 186.299 177.778 186.299C200.3 186.299 218.557 204.556 218.557 227.078V581.85H137V227.078Z" fill="white"/>
<path d="M282.443 213.485C282.443 190.964 300.7 172.707 323.222 172.707C345.743 172.707 364 190.964 364 213.485C364 236.006 345.743 254.263 323.222 254.263C300.7 254.263 282.443 236.006 282.443 213.485Z" fill="#00C3C6"/>
<path d="M282.443 308.635C282.443 286.114 300.7 267.856 323.222 267.856C345.743 267.856 364 286.114 364 308.635V581.85H282.443V308.635Z" fill="white"/>
</g>
<defs>
<clipPath id="clip0_29_111">
<rect width="500" height="500" rx="250" fill="white"/>
</clipPath>
</defs>
</svg>
